<svg width="24" height="24" viewBox="0 0 24 24" fill="none" xmlns="http://www.w3.org/2000/svg">
    <path fill-rule="evenodd" clip-rule="evenodd" d="M11.9999 9.17C10.4341 9.17 9.16992 10.4342 9.16992 12C9.16992 13.5658 10.4341 14.83 11.9999 14.83C13.5657 14.83 14.8299 13.5658 14.8299 12C14.8299 10.4342 13.5657 9.17 11.9999 9.17ZM7.66992 12C7.66992 9.60578 9.60571 7.67 11.9999 7.67C14.3941 7.67 16.3299 9.60578 16.3299 12C16.3299 14.3942 14.3941 16.33 11.9999 16.33C9.60571 16.33 7.66992 14.3942 7.66992 12Z" fill="#B3B3B3"/>
    <path fill-rule="evenodd" clip-rule="evenodd" d="M2.25758 8.99697C4.6485 5.2386 8.15211 2.97 12.0001 2.97C15.8481 2.97 19.3517 5.23859 21.7426 8.99693C22.2878 9.85135 22.5351 10.9459 22.5351 11.995C22.5351 13.044 22.2878 14.1386 21.7426 14.993C19.3517 18.7514 15.8481 21.02 12.0001 21.02C8.15194 21.02 4.64819 18.7512 2.25727 14.9925C1.71229 14.1382 1.46509 13.0438 1.46509 11.995C1.46509 10.946 1.71239 9.85138 2.25758 8.99697ZM12.0001 4.47C8.78823 4.47 5.71198 6.3612 3.52291 9.80254L3.52228 9.80353C3.16769 10.359 2.96509 11.1542 2.96509 11.995C2.96509 12.8358 3.16769 13.631 3.52228 14.1865L3.52291 14.1875C5.71198 17.6288 8.78823 19.52 12.0001 19.52C15.2119 19.52 18.2882 17.6288 20.4773 14.1875L20.4779 14.1865C20.8325 13.631 21.0351 12.8358 21.0351 11.995C21.0351 11.1542 20.8325 10.359 20.4779 9.80353L20.4773 9.80254C18.2882 6.3612 15.2119 4.47 12.0001 4.47Z" fill="#B3B3B3"/>
</svg>
